<svg width="326" height="267" viewBox="0 0 326 267" fill="none" xmlns="http://www.w3.org/2000/svg">
<path fill-rule="evenodd" clip-rule="evenodd" d="M48.0786 131.6C48.3618 130.315 38.4351 122.818 41.9823 101.027C42.8284 101.569 44.9686 104.723 44.9686 104.723C44.9686 104.723 44.1313 92.7937 45.917 87.7073C46.667 88.7223 47.9803 88.6606 47.9803 88.6606C47.9803 88.6606 49.8113 76.9063 52.6134 70.0156C53.5111 71.2087 54.8131 70.8702 54.8131 70.8702C54.8131 70.8702 58.0928 61.9988 59.5388 59.2354C59.5658 60.8717 60.7757 61.1542 60.7757 61.1542C60.7757 61.1542 62.4434 56.0491 63.9165 53.3734C63.9077 55.1169 64.6942 56.2819 64.6942 56.2819C64.6942 56.2819 67.1166 51.0337 69.56 47.4359C69.3244 49.2554 70.3266 50.092 70.3266 50.092C70.3266 50.092 73.3146 45.1816 76.1304 42.8347C75.3614 44.4675 75.9133 46.162 75.9133 46.162C75.9144 46.1604 80.725 39.5719 83.8219 37.3454C82.7988 39.1253 83.3438 40.6985 83.3438 40.6985C83.3438 40.6985 87.4846 35.5427 89.7371 34.2817C89.3496 35.7934 89.6297 37.3991 89.6297 37.3991C89.6309 37.3976 93.8141 32.6205 96.5756 31.0151C95.9597 32.8217 95.9608 34.3302 95.9608 34.3302C95.9608 34.3302 99.0733 30.9815 101.498 29.8863C100.859 31.5592 101.327 32.3357 101.327 32.3357C101.328 32.3342 104.214 29.2886 107.106 27.7268C106.23 29.7142 106.739 30.8864 106.739 30.8864C106.739 30.8864 109.03 28.4996 111.423 27.2881C110.884 28.6072 111.233 29.4817 111.233 29.4817C111.233 29.4817 113.77 26.9459 116.559 25.7353C115.896 27.1488 115.641 28.5707 115.641 28.5707C115.641 28.5707 118.622 25.3344 120.811 24.6859C120.009 26.0545 120.324 27.8798 120.324 27.8798C120.324 27.8798 123.706 23.9745 126.053 22.2394C126.093 24.1402 122.364 32.704 122.364 32.704C122.364 32.704 123.722 31.1811 125.789 27.9426C126.982 26.5841 121.914 38.1384 121.914 38.1384C121.914 38.1384 123.654 37.168 125.209 34.9673C124.627 37.2961 121.373 43.6148 121.373 43.6148C121.374 43.6133 121.666 43.9728 123.148 42.8247C122.896 45.7565 120.397 50.2218 120.397 50.2218C120.397 50.2218 120.764 49.9824 122.496 48.6597C122.21 51.3576 119.85 55.8611 119.85 55.8611C119.85 55.8611 121.061 54.6176 122.334 54.0346C121.42 57.0061 118.748 61.167 118.748 61.167C118.749 61.1655 119.877 60.3975 121.24 59.6034C120.705 62.3182 117.761 67.6594 117.761 67.6594C117.761 67.6594 119.082 67.5903 120.19 66.8354C119.246 70.9259 116.494 73.9038 116.494 73.9038C116.494 73.9038 117.594 74.5343 118.512 74.3284C117.132 78.0326 112.73 81.9928 112.73 81.9928C112.731 81.9912 113.868 82.8638 114.674 83.0285C112.582 85.969 108.632 89.0661 108.632 89.0661C108.632 89.0661 109.666 90.1577 110.976 90.1062C108.844 92.7806 104.522 96.1556 104.522 96.1556C104.522 96.1556 105.692 97.2824 106.866 97.048C104.859 99.7937 100.433 103.358 100.433 103.358C100.433 103.358 101.189 104.352 102.736 103.991C100.601 106.692 96.7718 109.434 96.7718 109.434C96.7718 109.434 97.7555 110.15 99.332 110.047C97.1617 112.35 94.0328 114.205 94.0328 114.205C94.0328 114.205 94.6246 114.9 95.4538 115.306C93.2535 117.229 89.1812 118.875 89.1812 118.875C89.1812 118.875 90.1535 119.465 90.5718 119.744C88.1066 121.545 83.7017 123.993 83.7017 123.993C83.7017 123.993 84.0585 124.999 84.5095 125.651C82.6738 127.185 77.96 129.004 77.96 129.004C77.96 129.004 78.3008 129.879 78.4057 131.048C76.8009 132.146 69.7724 133.325 69.7724 133.325C69.7724 133.325 69.9276 135.146 69.9854 135.667C68.696 136.55 62.7966 138.014 57.2571 136.91C47.9356 141.972 41.8005 168.187 41.7154 176.046C40.6774 176.756 38.747 175.103 36.8383 173.929C63.9802 99.3405 73.4614 92.1165 112 39.4553C70.7159 90.8968 55.1823 113.205 36.3746 173.754C35.2803 173.091 34.3105 172.643 33.7617 172.99C39.2558 156.732 47.8997 132.84 48.0804 131.604L48.0786 131.6Z" fill="#000000"/>
<path fill-rule="evenodd" clip-rule="evenodd" d="M78.8413 206.062C79.7717 206.827 76.2875 219.134 91.1028 232.971C91.4536 231.994 91.3524 228.195 91.3524 228.195C91.3524 228.195 97.3233 237.651 101.519 240.233C101.533 238.969 102.578 238.126 102.578 238.126C102.578 238.126 110.507 245.645 116.485 248.883C116.515 247.386 117.705 246.757 117.705 246.757C117.705 246.757 125.149 251.147 127.795 252.228C126.908 250.99 127.683 249.961 127.683 249.961C127.683 249.961 131.798 252.636 134.416 253.632C133.442 252.339 133.402 250.939 133.402 250.939C133.402 250.939 138.177 253.21 142.053 254.236C140.863 253.04 141.171 251.738 141.171 251.738C141.171 251.738 146.194 253.374 149.663 253.217C148.166 252.521 147.651 250.885 147.651 250.885C147.653 250.885 155.01 252.538 158.629 252.101C156.854 251.467 156.401 249.926 156.401 249.926C156.401 249.926 162.448 250.964 164.882 250.379C163.745 249.515 163.07 248.129 163.07 248.129C163.072 248.129 168.942 248.857 171.958 248.184C170.482 247.254 169.646 246.13 169.646 246.13C169.646 246.13 173.899 246.518 176.373 245.692C174.953 244.879 174.883 243.983 174.883 243.983C174.885 243.983 178.796 244.299 181.888 243.505C180.112 242.617 179.853 241.399 179.853 241.399C179.853 241.399 182.941 241.627 185.455 240.91C184.308 240.292 184.092 239.404 184.092 239.404C184.092 239.404 187.452 239.575 190.27 238.59C188.975 237.986 187.991 237.098 187.991 237.098C187.991 237.098 192.08 237.492 194.125 236.493C192.749 236.016 191.979 234.443 191.979 234.443C191.979 234.443 196.748 235.064 199.518 234.767C198.494 233.324 190.874 229.467 190.874 229.467C190.874 229.467 192.764 229.682 196.151 230.697C197.823 230.901 187.514 225.722 187.514 225.722C187.514 225.722 189.392 225.267 191.809 225.855C190.07 224.513 184.061 222.007 184.061 222.007C184.062 222.008 184.088 221.542 185.865 221.395C184.045 219.38 179.645 217.744 179.645 217.744C179.645 217.744 180.06 217.675 182.128 217.487C180.411 215.671 176.096 213.913 176.096 213.913C176.096 213.913 177.718 214.019 179.022 213.592C176.67 211.997 172.305 210.705 172.305 210.705C172.307 210.705 173.601 210.514 175.091 210.183C173.174 208.522 167.945 206.535 167.945 206.535C167.945 206.535 169.001 205.692 170.272 205.505C167.277 203.095 163.507 202.739 163.507 202.739C163.507 202.739 164.004 201.525 164.825 201.057C161.708 199.231 156.124 199.26 156.124 199.26C156.125 199.26 156.517 197.84 157.045 197.173C153.804 196.397 149.046 196.763 149.046 196.763C149.046 196.763 149.237 195.25 150.274 194.401C147.149 193.852 141.95 194.263 141.95 194.263C141.95 194.263 142.226 192.631 143.26 192.011C140.192 191.323 134.808 191.664 134.808 191.664C134.808 191.664 134.839 190.412 136.23 189.633C133.089 189.066 128.62 189.615 128.62 189.615C128.62 189.615 128.98 188.415 130.251 187.424C127.303 187.178 123.866 187.914 123.866 187.914C123.866 187.914 123.935 186.995 124.349 186.131C121.588 186.188 117.541 187.718 117.541 187.718C117.541 187.718 117.962 186.62 118.129 186.129C115.233 186.456 110.484 187.614 110.484 187.614C110.484 187.614 110.201 186.623 110.187 185.832C107.922 185.931 103.285 187.767 103.285 187.767C103.285 187.767 103.062 186.884 102.494 185.942C100.65 186.21 94.5852 190.09 94.5852 190.09C94.5852 190.09 93.6948 188.628 93.4506 188.2C91.9685 188.416 86.6148 191.318 82.9625 195.891C72.9791 198.429 53.718 183.048 49.2944 177.249C48.1016 177.423 47.532 179.961 46.7134 182.128C108.973 219.336 120.278 218.3 179.151 231.453C118.841 221.068 94.5114 214.96 46.4538 182.573C45.9791 183.808 45.4805 184.798 44.866 184.911C58.1115 193.306 78.0159 205.259 78.8403 206.057L78.8413 206.062Z" fill="#000000"/>
<path fill-rule="evenodd" clip-rule="evenodd" d="M108.766 137.801C110.377 136.468 104.539 114.039 130.212 89.8466C130.804 91.631 130.581 98.4895 130.581 98.4895C130.581 98.4895 140.978 81.7291 148.231 77.294C148.24 79.5789 150.028 81.1595 150.028 81.1595C150.028 81.1595 163.768 68.0054 174.099 62.4815C174.13 65.1878 176.17 66.3898 176.17 66.3898C176.17 66.3898 189.038 58.8633 193.605 57.056C192.064 59.2437 193.384 61.1464 193.384 61.1464C193.384 61.1464 200.5 56.5374 205.018 54.8797C203.326 57.1633 203.238 59.692 203.238 59.692C203.238 59.692 211.485 55.8495 218.169 54.206C216.105 56.3026 216.618 58.6719 216.618 58.6719C216.618 58.6719 225.284 55.9899 231.253 56.4638C228.667 57.6399 227.76 60.5685 227.76 60.5685C227.763 60.5679 240.445 57.9833 246.668 58.9715C243.605 60.0196 242.806 62.7799 242.806 62.7799C242.806 62.7799 253.226 61.2335 257.407 62.4239C255.439 63.9233 254.26 66.3913 254.26 66.3913C254.263 66.3907 264.374 65.3966 269.556 66.7778C267.004 68.3763 265.551 70.3633 265.551 70.3633C265.551 70.3633 272.876 69.8941 277.124 71.521C274.669 72.9136 274.537 74.5286 274.537 74.5286C274.54 74.5279 281.274 74.1711 286.586 75.7745C283.518 77.2824 283.058 79.469 283.058 79.469C283.058 79.469 288.373 79.2263 292.691 80.6597C290.71 81.7136 290.327 83.3068 290.327 83.3068C290.327 83.3068 296.111 83.1799 300.948 85.1153C298.712 86.1361 297.007 87.686 297.007 87.686C297.007 87.686 304.05 87.1979 307.556 89.1142C305.181 89.9009 303.837 92.7024 303.837 92.7024C303.837 92.7024 312.052 91.8411 316.814 92.5277C315.034 95.0792 301.871 101.632 301.871 101.632C301.871 101.632 305.127 101.347 310.968 99.6996C313.848 99.4212 296.041 108.217 296.041 108.217C296.041 108.217 299.266 109.141 303.433 108.211C300.423 110.54 290.05 114.74 290.05 114.74C290.053 114.739 290.09 115.582 293.147 115.946C289.99 119.486 282.396 122.201 282.396 122.201C282.396 122.201 283.11 122.35 286.665 122.801C283.687 125.99 276.239 128.931 276.239 128.931C276.239 128.931 279.033 128.827 281.27 129.67C277.203 132.425 269.674 134.52 269.674 134.52C269.677 134.519 271.902 134.936 274.462 135.615C271.141 138.513 262.118 141.817 262.118 141.817C262.118 141.817 263.923 143.397 266.109 143.806C260.924 147.996 254.431 148.433 254.431 148.433C254.431 148.433 255.27 150.654 256.678 151.545C251.29 154.674 241.679 154.317 241.679 154.317C241.682 154.316 242.338 156.903 243.239 158.139C237.651 159.362 229.467 158.441 229.467 158.441C229.467 158.441 229.776 161.186 231.55 162.776C226.166 163.598 217.224 162.572 217.224 162.572C217.224 162.572 217.677 165.534 219.448 166.711C214.16 167.786 204.899 166.878 204.899 166.878C204.899 166.878 204.936 169.141 207.32 170.624C201.906 171.478 194.223 170.242 194.223 170.242C194.223 170.242 194.827 172.429 197.001 174.288C191.926 174.572 186.019 173.055 186.019 173.055C186.019 173.055 186.127 174.719 186.828 176.302C182.078 176.05 175.132 173.062 175.132 173.062C175.132 173.062 175.843 175.069 176.124 175.966C171.144 175.217 162.986 172.866 162.986 172.866C162.986 172.866 162.486 174.641 162.451 176.069C158.556 175.766 150.598 172.195 150.598 172.195C150.598 172.195 150.203 173.779 149.215 175.45C146.044 174.864 135.656 167.523 135.656 167.523C135.656 167.523 134.105 170.116 133.679 170.874C131.132 170.404 121.955 164.867 115.728 156.404C98.5795 151.272 65.2347 178.013 57.5475 188.249C55.497 187.87 54.5493 183.252 53.1682 179.292C160.792 115.462 180.235 117.951 281.721 97.404C177.797 112.872 135.848 122.578 52.7271 178.474C51.9261 176.216 51.0807 174.4 50.0245 174.162C72.9273 159.716 107.335 139.206 108.764 137.809L108.766 137.801Z" fill="#000000"/>
</svg>
